<svg width="155" height="54" viewBox="0 0 155 54" fill="none" xmlns="http://www.w3.org/2000/svg">
<g opacity="0.2" filter="url(#filter0_d_1332_2769)">
<path fill-rule="evenodd" clip-rule="evenodd" d="M53.1772 13.6343C54.5712 9.17463 57.9558 5.92213 63.0213 6.53254C64.5246 6.7102 68.0959 8.01302 69.3304 9.06986C67.1712 6.91064 65.4174 5.4256 62.0009 5.4256C59.7613 5.41529 57.6015 6.25656 55.959 7.779C54.3164 9.30145 53.3139 11.3913 53.1545 13.6252" fill="#021B8D"/>
</g>
<g filter="url(#filter1_d_1332_2769)">
<path fill-rule="evenodd" clip-rule="evenodd" d="M80.5047 8.37727L76.6873 4.55536C74.7597 2.63133 72.3052 1.32166 69.6337 0.791757C66.9622 0.261853 64.1936 0.535476 61.6775 1.57807C59.1615 2.62067 57.0108 4.38547 55.4971 6.64961C53.9834 8.91375 53.1746 11.5757 53.1728 14.2992C53.177 12.5479 53.6987 10.8369 54.6725 9.3813C55.6463 7.92569 57.0287 6.79041 58.6458 6.11814C60.2629 5.44588 62.0427 5.26663 63.7614 5.60294C65.4801 5.93924 67.0611 6.77609 68.3056 8.00829L84.3357 24.0385C86.2642 25.9621 88.7194 27.2713 91.3914 27.8007C94.0633 28.3301 96.8322 28.056 99.3485 27.013C101.865 25.9701 104.016 24.205 105.53 21.9406C107.044 19.6762 107.853 17.014 107.855 14.2901C107.85 16.0437 107.327 17.7567 106.351 19.2137C105.375 20.6707 103.99 21.8065 102.37 22.4784C100.75 23.1503 98.9676 23.3282 97.2469 22.9898C95.5262 22.6514 93.944 21.8117 92.6993 20.5764L80.5047 8.37727Z" fill="url(#paint0_linear_1332_2769)"/>
</g>
<g opacity="0.2" filter="url(#filter2_d_1332_2769)">
<path fill-rule="evenodd" clip-rule="evenodd" d="M107.827 14.9462C106.438 19.4059 103.053 22.6538 97.9742 22.0525C96.4709 21.8749 92.895 20.5675 91.6651 19.5107C93.8243 21.6699 95.5781 23.1549 98.9946 23.1549C101.234 23.1652 103.393 22.3237 105.035 20.8012C106.677 19.2786 107.678 17.1889 107.836 14.9553" fill="#021B8D"/>
</g>
<g filter="url(#filter3_d_1332_2769)">
<path fill-rule="evenodd" clip-rule="evenodd" d="M107.85 14.0627C107.85 13.7529 107.818 13.4477 107.782 13.1516C107.818 13.4568 107.841 13.762 107.85 14.0627ZM73.6305 15.2516L69.6993 19.1829C65.4674 23.392 57.983 20.4902 57.983 14.2904C57.983 8.32296 64.9754 5.321 69.344 9.07003L68.2962 8.02686C63.0212 2.70169 53.6053 5.99974 53.168 13.8303V14.2859C53.1693 17.0102 53.9777 19.673 55.4913 21.9381C57.0049 24.2032 59.1558 25.969 61.6722 27.0125C64.1887 28.056 66.958 28.3305 69.6304 27.8013C72.3027 27.272 74.7584 25.9627 76.6871 24.0388L79.5615 21.1644L73.6305 15.2516ZM87.3785 13.3293L91.2961 9.41168C95.5553 5.17067 103.021 8.10886 103.021 14.2904C103.021 20.472 95.5781 23.4011 91.3097 19.1874L92.6991 20.5768C97.792 25.6651 106.666 22.8545 107.732 15.6525L107.836 14.2859C107.827 11.5673 107.014 8.91214 105.5 6.65441C103.985 4.39667 101.837 2.63716 99.3252 1.59718C96.8134 0.557196 94.0501 0.283182 91.383 0.809601C88.7158 1.33602 86.2639 2.63936 84.3355 4.55571L81.4657 7.42556L87.3785 13.3293Z" fill="#5271FF"/>
</g>
<g filter="url(#filter4_d_1332_2769)">
<path fill-rule="evenodd" clip-rule="evenodd" d="M149.288 16.2494V11.4116H140.801V5.35759H148.413C150.65 5.35759 152.094 4.73351 152.094 2.27819C152.104 1.76347 152.061 1.24909 151.967 0.743047L151.921 0.519836H134.72V27.9019H152.591L152.613 27.6468C152.65 27.1913 152.695 26.6993 152.695 26.2255C152.695 24.0253 151.133 23.1051 149.092 23.1051H140.801V16.2722L149.288 16.2494Z" fill="url(#paint1_linear_1332_2769)"/>
</g>
<g filter="url(#filter5_d_1332_2769)">
<path fill-rule="evenodd" clip-rule="evenodd" d="M112.681 21.0684L112.513 21.2916C111.857 22.1662 110.736 23.7788 110.736 24.904C110.763 25.3097 110.89 25.7025 111.106 26.0468C111.323 26.3912 111.621 26.6763 111.975 26.8764C114.089 28.1246 116.945 28.5574 119.364 28.5574C125.049 28.5574 129.691 25.6738 129.691 19.5515C129.691 15.7706 127.719 13.7617 124.402 12.3222C123.637 11.9851 122.849 11.6981 122.065 11.4111C120.699 10.8964 118.421 10.1584 117.647 8.8419C117.425 8.46048 117.312 8.02577 117.319 7.58463C117.319 5.3753 119.546 4.81955 121.327 4.81955C123.444 4.89556 125.477 5.66187 127.117 7.00155L127.322 7.16554L127.495 6.97422C128.151 6.26814 129.172 4.86055 129.172 3.86293C129.172 3.44593 129.058 3.03681 128.842 2.68016C128.626 2.32351 128.316 2.03302 127.946 1.84037H127.924C127.149 1.33002 126.301 0.941346 125.409 0.687871C123.923 0.229619 122.377 -0.00226569 120.822 1.66853e-05C115.843 1.66853e-05 111.014 2.58289 111.014 8.12672C111.014 12.0899 113.023 14.0486 116.553 15.4562C117.191 15.7068 117.838 15.9118 118.489 16.1532C119.924 16.6497 122.033 17.292 122.963 18.5493C123.362 19.1039 123.567 19.7749 123.546 20.458C123.546 22.8814 121.464 23.7834 119.341 23.7834C116.809 23.7834 114.854 22.7675 112.905 21.2415L112.681 21.0684Z" fill="url(#paint2_linear_1332_2769)"/>
</g>
<g filter="url(#filter6_d_1332_2769)">
<path fill-rule="evenodd" clip-rule="evenodd" d="M28.5349 0.587721V27.9197H34.5753V16.2899H44.1096V27.9015H50.15V3.75823C50.15 1.41679 48.6057 0.359955 46.3918 0.359955C45.9363 0.359955 45.4807 0.441951 45.0571 0.478393L44.1096 0.592276V11.4112H34.5753V3.75823C34.5753 1.36668 32.9764 0.359955 30.7352 0.359955C30.3297 0.359955 29.9152 0.446506 29.5189 0.478393L28.5349 0.587721Z" fill="url(#paint3_linear_1332_2769)"/>
</g>
<g filter="url(#filter7_d_1332_2769)">
<path fill-rule="evenodd" clip-rule="evenodd" d="M21.2463 20.8232L21.0322 21.0099C19.3011 22.5268 17.7068 23.5062 15.3289 23.5062C9.80783 23.5062 8.1588 18.9509 8.1588 14.2134C8.1588 9.6945 9.80783 5.03895 15.0875 5.03895C17.6065 5.03895 19.3512 5.95002 21.1005 7.72204L21.2918 7.91336L21.4877 7.72659C22.3395 6.90664 23.4966 5.70403 23.4966 4.44221C23.477 4.0709 23.3802 3.70775 23.2123 3.37597C23.0445 3.04419 22.8093 2.75106 22.5217 2.5153C20.563 0.73417 17.397 0.000762939 14.8096 0.000762939C6.13168 0.000762939 2 6.22789 2 14.3728C2 22.6635 5.96769 28.5809 14.7549 28.5809C16.5619 28.606 18.358 28.2972 20.0528 27.6698C20.9152 27.3584 21.7111 26.887 22.3987 26.2804C22.6801 26.0545 22.9077 25.769 23.0653 25.4445C23.2228 25.1199 23.3063 24.7644 23.3098 24.4036C23.3098 23.3331 22.0708 21.8117 21.4057 21.0236L21.2463 20.8232Z" fill="url(#paint4_linear_1332_2769)"/>
</g>
<path d="M24.481 48.5823V35.8923H27.289V41.4183H27.325L32.527 35.8923H35.857L29.467 42.5343L29.485 41.3823L36.253 48.5823H32.815L27.325 42.7863H27.289V48.5823H24.481ZM39.1433 48.5823V35.8923H47.9633V38.0703H41.8253V41.0403H47.5313V43.2363H41.8253V46.4043H47.9633V48.5823H39.1433ZM55.1927 48.5823V38.1783H51.1607V35.8923H62.0327V38.1783H58.0007V48.5823H55.1927ZM62.9836 48.5823L68.8156 35.8923H71.1376L77.0416 48.5823H74.1976L72.6676 45.0543L73.7656 45.8283H66.2236L67.3396 45.0543L65.8096 48.5823H62.9836ZM69.9676 38.8443L67.6456 44.3523L67.1596 43.6683H72.8296L72.4156 44.3523L70.0396 38.8443H69.9676ZM80.4938 48.5823V35.8923H82.9598L87.3698 45.7923H86.7938L91.2038 35.8923H93.6518V48.5823H91.0958V39.9603H91.8158L87.8738 48.5823H86.2538L82.2938 39.9603H83.0498V48.5823H80.4938ZM98.6009 48.5823V35.8923H101.409V48.5823H98.6009ZM106.32 48.5823V35.8923H108.408L115.302 44.6583H114.816V35.8923H117.426V48.5823H115.338L108.462 39.8163H108.93V48.5823H106.32ZM122.336 48.5823V35.8923H131.156V38.0703H125.018V41.0403H130.724V43.2363H125.018V46.4043H131.156V48.5823H122.336Z" fill="#5072FF"/>
<defs>
<filter id="filter0_d_1332_2769" x="51.7175" y="5.42551" width="19.05" height="12.5198" filterUnits="userSpaceOnUse" color-interpolation-filters="sRGB">
<feFlood flood-opacity="0" result="BackgroundImageFix"/>
<feColorMatrix in="SourceAlpha" type="matrix" values="0 0 0 0 0 0 0 0 0 0 0 0 0 0 0 0 0 0 127 0" result="hardAlpha"/>
<feOffset dy="2.87399"/>
<feGaussianBlur stdDeviation="0.718499"/>
<feColorMatrix type="matrix" values="0 0 0 0 0 0 0 0 0 0 0 0 0 0 0 0 0 0 0.15 0"/>
<feBlend mode="normal" in2="BackgroundImageFix" result="effect1_dropShadow_1332_2769"/>
<feBlend mode="normal" in="SourceGraphic" in2="effect1_dropShadow_1332_2769" result="shape"/>
</filter>
<filter id="filter1_d_1332_2769" x="51.7358" y="0.528412" width="57.5561" height="30.4121" filterUnits="userSpaceOnUse" color-interpolation-filters="sRGB">
<feFlood flood-opacity="0" result="BackgroundImageFix"/>
<feColorMatrix in="SourceAlpha" type="matrix" values="0 0 0 0 0 0 0 0 0 0 0 0 0 0 0 0 0 0 127 0" result="hardAlpha"/>
<feOffset dy="1.44"/>
<feGaussianBlur stdDeviation="0.718499"/>
<feColorMatrix type="matrix" values="0 0 0 0 0 0 0 0 0 0 0 0 0 0 0 0 0 0 0.15 0"/>
<feBlend mode="normal" in2="BackgroundImageFix" result="effect1_dropShadow_1332_2769"/>
<feBlend mode="normal" in="SourceGraphic" in2="effect1_dropShadow_1332_2769" result="shape"/>
</filter>
<filter id="filter2_d_1332_2769" x="90.2281" y="14.9462" width="19.0454" height="12.5198" filterUnits="userSpaceOnUse" color-interpolation-filters="sRGB">
<feFlood flood-opacity="0" result="BackgroundImageFix"/>
<feColorMatrix in="SourceAlpha" type="matrix" values="0 0 0 0 0 0 0 0 0 0 0 0 0 0 0 0 0 0 127 0" result="hardAlpha"/>
<feOffset dy="2.87399"/>
<feGaussianBlur stdDeviation="0.718499"/>
<feColorMatrix type="matrix" values="0 0 0 0 0 0 0 0 0 0 0 0 0 0 0 0 0 0 0.15 0"/>
<feBlend mode="normal" in2="BackgroundImageFix" result="effect1_dropShadow_1332_2769"/>
<feBlend mode="normal" in="SourceGraphic" in2="effect1_dropShadow_1332_2769" result="shape"/>
</filter>
<filter id="filter3_d_1332_2769" x="51.731" y="0.548706" width="57.5561" height="30.3922" filterUnits="userSpaceOnUse" color-interpolation-filters="sRGB">
<feFlood flood-opacity="0" result="BackgroundImageFix"/>
<feColorMatrix in="SourceAlpha" type="matrix" values="0 0 0 0 0 0 0 0 0 0 0 0 0 0 0 0 0 0 127 0" result="hardAlpha"/>
<feOffset dy="1.44"/>
<feGaussianBlur stdDeviation="0.718499"/>
<feColorMatrix type="matrix" values="0 0 0 0 0 0 0 0 0 0 0 0 0 0 0 0 0 0 0.15 0"/>
<feBlend mode="normal" in2="BackgroundImageFix" result="effect1_dropShadow_1332_2769"/>
<feBlend mode="normal" in="SourceGraphic" in2="effect1_dropShadow_1332_2769" result="shape"/>
</filter>
<filter id="filter4_d_1332_2769" x="133.283" y="0.519836" width="20.8493" height="30.2561" filterUnits="userSpaceOnUse" color-interpolation-filters="sRGB">
<feFlood flood-opacity="0" result="BackgroundImageFix"/>
<feColorMatrix in="SourceAlpha" type="matrix" values="0 0 0 0 0 0 0 0 0 0 0 0 0 0 0 0 0 0 127 0" result="hardAlpha"/>
<feOffset dy="1.437"/>
<feGaussianBlur stdDeviation="0.718499"/>
<feColorMatrix type="matrix" values="0 0 0 0 0 0 0 0 0 0 0 0 0 0 0 0 0 0 0.15 0"/>
<feBlend mode="normal" in2="BackgroundImageFix" result="effect1_dropShadow_1332_2769"/>
<feBlend mode="normal" in="SourceGraphic" in2="effect1_dropShadow_1332_2769" result="shape"/>
</filter>
<filter id="filter5_d_1332_2769" x="109.299" y="0" width="21.8287" height="31.4313" filterUnits="userSpaceOnUse" color-interpolation-filters="sRGB">
<feFlood flood-opacity="0" result="BackgroundImageFix"/>
<feColorMatrix in="SourceAlpha" type="matrix" values="0 0 0 0 0 0 0 0 0 0 0 0 0 0 0 0 0 0 127 0" result="hardAlpha"/>
<feOffset dy="1.437"/>
<feGaussianBlur stdDeviation="0.718499"/>
<feColorMatrix type="matrix" values="0 0 0 0 0 0 0 0 0 0 0 0 0 0 0 0 0 0 0.15 0"/>
<feBlend mode="normal" in2="BackgroundImageFix" result="effect1_dropShadow_1332_2769"/>
<feBlend mode="normal" in="SourceGraphic" in2="effect1_dropShadow_1332_2769" result="shape"/>
</filter>
<filter id="filter6_d_1332_2769" x="27.0979" y="0.359955" width="24.489" height="30.4337" filterUnits="userSpaceOnUse" color-interpolation-filters="sRGB">
<feFlood flood-opacity="0" result="BackgroundImageFix"/>
<feColorMatrix in="SourceAlpha" type="matrix" values="0 0 0 0 0 0 0 0 0 0 0 0 0 0 0 0 0 0 127 0" result="hardAlpha"/>
<feOffset dy="1.437"/>
<feGaussianBlur stdDeviation="0.718499"/>
<feColorMatrix type="matrix" values="0 0 0 0 0 0 0 0 0 0 0 0 0 0 0 0 0 0 0.15 0"/>
<feBlend mode="normal" in2="BackgroundImageFix" result="effect1_dropShadow_1332_2769"/>
<feBlend mode="normal" in="SourceGraphic" in2="effect1_dropShadow_1332_2769" result="shape"/>
</filter>
<filter id="filter7_d_1332_2769" x="0.563003" y="0.000762939" width="24.3706" height="31.4555" filterUnits="userSpaceOnUse" color-interpolation-filters="sRGB">
<feFlood flood-opacity="0" result="BackgroundImageFix"/>
<feColorMatrix in="SourceAlpha" type="matrix" values="0 0 0 0 0 0 0 0 0 0 0 0 0 0 0 0 0 0 127 0" result="hardAlpha"/>
<feOffset dy="1.437"/>
<feGaussianBlur stdDeviation="0.718499"/>
<feColorMatrix type="matrix" values="0 0 0 0 0 0 0 0 0 0 0 0 0 0 0 0 0 0 0.15 0"/>
<feBlend mode="normal" in2="BackgroundImageFix" result="effect1_dropShadow_1332_2769"/>
<feBlend mode="normal" in="SourceGraphic" in2="effect1_dropShadow_1332_2769" result="shape"/>
</filter>
<linearGradient id="paint0_linear_1332_2769" x1="80.5138" y1="0.528412" x2="80.5138" y2="28.0635" gradientUnits="userSpaceOnUse">
<stop stop-color="#6D96FF"/>
<stop offset="1" stop-color="#5072FF"/>
</linearGradient>
<linearGradient id="paint1_linear_1332_2769" x1="143.708" y1="0.519836" x2="143.708" y2="27.9019" gradientUnits="userSpaceOnUse">
<stop stop-color="#3F75FF"/>
<stop offset="1" stop-color="#5271FF"/>
</linearGradient>
<linearGradient id="paint2_linear_1332_2769" x1="120.214" y1="0" x2="120.214" y2="28.5574" gradientUnits="userSpaceOnUse">
<stop stop-color="#3F75FF"/>
<stop offset="1" stop-color="#5271FF"/>
</linearGradient>
<linearGradient id="paint3_linear_1332_2769" x1="39.3424" y1="0.359955" x2="39.3424" y2="27.9197" gradientUnits="userSpaceOnUse">
<stop stop-color="#3F75FF"/>
<stop offset="1" stop-color="#5271FF"/>
</linearGradient>
<linearGradient id="paint4_linear_1332_2769" x1="12.7483" y1="0.000762939" x2="12.7483" y2="28.5823" gradientUnits="userSpaceOnUse">
<stop stop-color="#3F75FF"/>
<stop offset="1" stop-color="#5271FF"/>
</linearGradient>
</defs>
</svg>
