<svg width="24" height="24" viewBox="0 0 24 24" fill="none" xmlns="http://www.w3.org/2000/svg">
<path d="M12 0C5.37254 0 0 5.37254 0 12C0 18.6275 5.37254 24 12 24C18.6275 24 24 18.6275 24 12C24 5.37254 18.6275 0 12 0ZM12 3.71134C12.7521 3.71134 13.4874 3.93438 14.1128 4.35224C14.7382 4.77011 15.2256 5.36404 15.5134 6.05893C15.8012 6.75381 15.8766 7.51845 15.7298 8.25613C15.5831 8.99382 15.2209 9.67143 14.689 10.2033C14.1572 10.7351 13.4796 11.0973 12.7419 11.244C12.0042 11.3908 11.2396 11.3155 10.5447 11.0276C9.84981 10.7398 9.25588 10.2524 8.83802 9.627C8.42015 9.00162 8.19711 8.26637 8.19711 7.51423C8.19711 6.50564 8.59777 5.53836 9.31095 4.82518C10.0241 4.112 10.9914 3.71134 12 3.71134ZM17.0788 19.58C15.5509 20.5182 13.793 21.0148 12 21.0148C10.207 21.0148 8.44909 20.5182 6.92115 19.58C5.30524 18.5844 4.99126 16.3598 6.27439 14.9616C7.00218 14.1681 7.88698 13.5345 8.87263 13.1011C9.85827 12.6677 10.9233 12.4439 12 12.4439C13.0767 12.4439 14.1417 12.6677 15.1274 13.1011C16.113 13.5345 16.9978 14.1681 17.7256 14.9616C19.009 16.3598 18.6948 18.5844 17.0788 19.58Z" fill="white"/>
</svg>
