<svg width="24" height="24" viewBox="0 0 24 24" fill="none" xmlns="http://www.w3.org/2000/svg">
<path d="M12 0C9.62663 0 7.30655 0.703788 5.33316 2.02236C3.35977 3.34094 1.8217 5.21508 0.913451 7.4078C0.00519943 9.60051 -0.232441 12.0133 0.230582 14.3411C0.693605 16.6689 1.83649 18.807 3.51472 20.4853C5.19295 22.1635 7.33115 23.3064 9.65892 23.7694C11.9867 24.2324 14.3995 23.9948 16.5922 23.0865C18.7849 22.1783 20.6591 20.6402 21.9776 18.6668C23.2962 16.6935 24 14.3734 24 12C23.9966 8.81846 22.7312 5.76821 20.4815 3.51852C18.2318 1.26883 15.1815 0.00344108 12 0ZM12 19C11.8022 19 11.6089 18.9413 11.4444 18.8315C11.28 18.7216 11.1518 18.5654 11.0761 18.3827C11.0004 18.2 10.9806 17.9989 11.0192 17.8049C11.0578 17.6109 11.153 17.4327 11.2929 17.2929C11.4327 17.153 11.6109 17.0578 11.8049 17.0192C11.9989 16.9806 12.2 17.0004 12.3827 17.0761C12.5654 17.1518 12.7216 17.28 12.8315 17.4444C12.9414 17.6089 13 17.8022 13 18C13 18.2652 12.8946 18.5196 12.7071 18.7071C12.5196 18.8946 12.2652 19 12 19ZM13.527 12.7C13.3632 12.7797 13.2261 12.9053 13.1326 13.0616C13.039 13.2179 12.9929 13.398 13 13.58V14C13 14.2652 12.8946 14.5196 12.7071 14.7071C12.5196 14.8946 12.2652 15 12 15C11.7348 15 11.4804 14.8946 11.2929 14.7071C11.1054 14.5196 11 14.2652 11 14V13.58C10.9897 13.0011 11.1519 12.4322 11.4661 11.9458C11.7802 11.4595 12.2321 11.0776 12.764 10.849C13.1887 10.6732 13.5398 10.3565 13.7583 9.95215C13.9769 9.54783 14.0495 9.08058 13.964 8.629C13.887 8.23329 13.6935 7.86959 13.4085 7.58453C13.1234 7.29947 12.7597 7.10602 12.364 7.029C12.0751 6.97552 11.7779 6.98636 11.4936 7.06076C11.2093 7.13517 10.9449 7.2713 10.7192 7.45947C10.4936 7.64765 10.3121 7.88324 10.1878 8.1495C10.0635 8.41576 9.99936 8.70615 10 9C10 9.26521 9.89465 9.51957 9.70711 9.7071C9.51957 9.89464 9.26522 10 9 10C8.73479 10 8.48043 9.89464 8.2929 9.7071C8.10536 9.51957 8 9.26521 8 9C8.00054 8.2756 8.19778 7.56494 8.57067 6.94389C8.94356 6.32284 9.47811 5.8147 10.1172 5.47374C10.7564 5.13277 11.4761 4.97177 12.1996 5.00792C12.9231 5.04407 13.6232 5.27602 14.2252 5.679C14.8271 6.08198 15.3084 6.64086 15.6175 7.296C15.9266 7.95113 16.052 8.67791 15.9804 9.39875C15.9087 10.1196 15.6426 10.8074 15.2105 11.3889C14.7784 11.9703 14.1965 12.4235 13.527 12.7Z" fill="white"/>
</svg>
