<svg width="106" height="34" viewBox="0 0 106 34" fill="none" xmlns="http://www.w3.org/2000/svg">
<g opacity="0.2" filter="url(#filter0_d_627_693)">
<path fill-rule="evenodd" clip-rule="evenodd" d="M35.9178 9.25448C36.864 6.2274 39.1613 4.01971 42.5996 4.43404C43.62 4.55463 46.0441 5.43894 46.8821 6.15629C45.4165 4.69067 44.226 3.68268 41.907 3.68268C40.3869 3.67569 38.9209 4.24671 37.806 5.2801C36.6911 6.31348 36.0106 7.73198 35.9023 9.24829" fill="white"/>
</g>
<path fill-rule="evenodd" clip-rule="evenodd" d="M54.4671 5.68632L51.876 3.09212C50.5676 1.78615 48.9015 0.897197 47.0882 0.537515C45.2749 0.177833 43.3956 0.363559 41.6878 1.07124C39.98 1.77892 38.5202 2.97681 37.4927 4.51363C36.4653 6.05046 35.9163 7.85728 35.915 9.70592C35.9179 8.5172 36.2721 7.35584 36.933 6.36782C37.594 5.3798 38.5323 4.6092 39.63 4.15289C40.7276 3.69658 41.9357 3.57491 43.1023 3.80319C44.2689 4.03146 45.342 4.59948 46.1867 5.43586L57.0675 16.3166C58.3765 17.6223 60.043 18.511 61.8566 18.8703C63.6702 19.2296 65.5497 19.0436 67.2576 18.3357C68.9656 17.6277 70.4256 16.4296 71.4532 14.8926C72.4808 13.3556 73.03 11.5486 73.0315 9.69974C73.0281 10.8901 72.6729 12.0528 72.0104 13.0417C71.348 14.0307 70.4079 14.8017 69.3084 15.2577C68.2089 15.7138 66.9991 15.8345 65.8312 15.6048C64.6632 15.3751 63.5893 14.8052 62.7444 13.9667L54.4671 5.68632Z" fill="white"/>
<g opacity="0.2" filter="url(#filter1_d_627_693)">
<path fill-rule="evenodd" clip-rule="evenodd" d="M73.0124 10.145C72.0694 13.1721 69.772 15.3767 66.3244 14.9685C65.3041 14.848 62.8768 13.9606 62.042 13.2432C63.5076 14.7088 64.698 15.7168 67.017 15.7168C68.5369 15.7238 70.0025 15.1526 71.1169 14.1192C72.2313 13.0857 72.9111 11.6672 73.0186 10.1512" fill="white"/>
</g>
<path fill-rule="evenodd" clip-rule="evenodd" d="M73.0281 9.5454C73.0281 9.33514 73.0064 9.12798 72.9817 8.927C73.0064 9.13416 73.0219 9.34133 73.0281 9.5454ZM49.8009 10.3524L47.1325 13.0208C44.26 15.8778 39.1799 13.9082 39.1799 9.7C39.1799 5.64947 43.9261 3.61184 46.8913 6.15656L46.1802 5.44849C42.5996 1.83393 36.2085 4.07255 35.9116 9.38771V9.69691C35.9125 11.5461 36.4612 13.3535 37.4886 14.891C38.516 16.4284 39.9759 17.627 41.684 18.3353C43.3921 19.0436 45.2718 19.2299 47.0857 18.8707C48.8997 18.5115 50.5665 17.6228 51.8757 16.3169L53.8267 14.3658L49.8009 10.3524ZM59.1326 9.04759L61.7917 6.38846C64.6827 3.5098 69.7505 5.50415 69.7505 9.7C69.7505 13.8959 64.6982 15.884 61.801 13.0239L62.7441 13.967C66.2009 17.4207 72.2241 15.513 72.9477 10.6245L73.0188 9.69691C73.0125 7.85161 72.4606 6.04939 71.4327 4.51691C70.4047 2.98443 68.9466 1.79013 67.2417 1.08423C65.5367 0.378321 63.6611 0.19233 61.8507 0.549646C60.0403 0.906962 58.376 1.79163 57.0671 3.09238L55.1192 5.04034L59.1326 9.04759Z" fill="white"/>
<path fill-rule="evenodd" clip-rule="evenodd" d="M103.136 11.0295V7.74577H97.3754V3.63649H102.542C104.06 3.63649 105.04 3.21289 105.04 1.5463C105.047 1.19692 105.018 0.847777 104.954 0.504292L104.923 0.352783H93.2476V18.9388H105.378L105.393 18.7657C105.418 18.4565 105.449 18.1225 105.449 17.801C105.449 16.3075 104.388 15.683 103.003 15.683H97.3754V11.0449L103.136 11.0295Z" fill="white"/>
<path fill-rule="evenodd" clip-rule="evenodd" d="M77.6562 14.3005L77.5418 14.4521C77.0966 15.0457 76.3359 16.1403 76.3359 16.904C76.354 17.1794 76.4404 17.446 76.5872 17.6797C76.734 17.9135 76.9367 18.107 77.177 18.2429C78.6117 19.0901 80.5503 19.3838 82.1922 19.3838C86.051 19.3838 89.2018 17.4266 89.2018 13.2709C89.2018 10.7045 87.8629 9.34096 85.612 8.36389C85.0925 8.13508 84.5576 7.94028 84.0258 7.74549C83.0982 7.39609 81.5522 6.89519 81.0265 6.0016C80.876 5.7427 80.799 5.44763 80.8039 5.1482C80.8039 3.64858 82.3159 3.27135 83.5249 3.27135C84.9614 3.32295 86.3415 3.8431 87.4548 4.75243L87.5939 4.86374L87.7114 4.73387C88.1567 4.25461 88.8493 3.29918 88.8493 2.62203C88.8496 2.33899 88.7722 2.06129 88.6255 1.8192C88.4789 1.57712 88.2686 1.37995 88.0175 1.24918H88.0021C87.4764 0.902775 86.9008 0.638955 86.2953 0.466904C85.2867 0.155858 84.2371 -0.00153788 83.1816 1.13254e-05C79.8021 1.13254e-05 76.5246 1.75318 76.5246 5.51615C76.5246 8.2062 77.8881 9.53576 80.2844 10.4912C80.7173 10.6613 81.1564 10.8004 81.5985 10.9643C82.5725 11.3013 84.0041 11.7373 84.6349 12.5907C84.9059 12.9671 85.045 13.4226 85.0307 13.8862C85.0307 15.5312 83.6176 16.1434 82.1767 16.1434C80.4576 16.1434 79.1311 15.4539 77.8077 14.418L77.6562 14.3005Z" fill="white"/>
<path fill-rule="evenodd" clip-rule="evenodd" d="M17.874 0.323179V18.8752H21.974V10.9813H28.4456V18.8629H32.5456V2.47522C32.5456 0.885925 31.4974 0.168579 29.9947 0.168579C29.6855 0.168579 29.3763 0.224235 29.0887 0.248971L28.4456 0.326271V7.66979H21.974V2.47522C21.974 0.851913 20.8887 0.168579 19.3675 0.168579C19.0923 0.168579 18.8109 0.227327 18.5419 0.248971L17.874 0.323179Z" fill="white"/>
<path fill-rule="evenodd" clip-rule="evenodd" d="M13.0637 14.1342L12.9184 14.2609C11.7434 15.2906 10.6612 15.9554 9.04721 15.9554C5.2997 15.9554 4.18039 12.8634 4.18039 9.64767C4.18039 6.5804 5.2997 3.42037 8.88334 3.42037C10.5932 3.42037 11.7775 4.03877 12.9648 5.24156L13.0946 5.37143L13.2276 5.24465C13.8058 4.68809 14.5912 3.8718 14.5912 3.01532C14.5779 2.76328 14.5122 2.5168 14.3982 2.29159C14.2843 2.06639 14.1247 1.86742 13.9295 1.7074C12.5999 0.498423 10.451 0.000610352 8.69472 0.000610352C2.80445 0.000610352 0 4.22738 0 9.75589C0 15.3833 2.69314 19.3999 8.65762 19.3999C9.88414 19.4169 11.1033 19.2073 12.2536 18.7815C12.839 18.5701 13.3793 18.2501 13.846 17.8384C14.037 17.6851 14.1915 17.4913 14.2984 17.271C14.4054 17.0507 14.462 16.8094 14.4644 16.5645C14.4644 15.8379 13.6234 14.8051 13.1719 14.2702L13.0637 14.1342Z" fill="white"/>
<path d="M2.47605 31.8694H4.60555V29.5741L7.0816 24.622H4.83156L3.56089 27.5601H3.52071L2.25004 24.622H0L2.47605 29.5741V31.8694Z" fill="white"/>
<path d="M12.9203 32C15.1753 32 16.5766 30.5585 16.5766 28.2482V28.2382C16.5766 25.9329 15.1703 24.4915 12.9203 24.4915C10.6853 24.4915 9.27399 25.9279 9.27399 28.2382V28.2482C9.27399 30.5636 10.6752 32 12.9203 32ZM12.9203 30.2622C12.0263 30.2622 11.4437 29.4988 11.4437 28.2482V28.2382C11.4437 26.9876 12.0313 26.2292 12.9203 26.2292C13.8243 26.2292 14.4069 26.9926 14.4069 28.2382V28.2482C14.4069 29.4837 13.8394 30.2622 12.9203 30.2622Z" fill="white"/>
<path d="M23.0631 32C25.0018 32 26.2624 30.9302 26.2624 29.2879V24.622H24.1329V29.0769C24.1329 29.8403 23.7612 30.2622 23.0681 30.2622C22.375 30.2622 22.0034 29.8403 22.0034 29.0769V24.622H19.8739V29.2879C19.8739 30.9402 21.1496 32 23.0631 32Z" fill="white"/>
<path d="M29.7355 31.8694H31.865V29.4888H32.5631L33.7082 31.8694H36.0888L34.7127 29.1723C35.4158 28.8308 35.8779 28.0172 35.8779 27.1132V27.1031C35.8779 25.4959 34.8634 24.622 33.0001 24.622H29.7355V31.8694ZM31.865 27.9871V26.1941H32.754C33.3165 26.1941 33.7082 26.5607 33.7082 27.088V27.0981C33.7082 27.6305 33.3265 27.9871 32.754 27.9871H31.865Z" fill="white"/>
<path d="M43.6428 31.8694H45.7723V29.0669H48.3236V31.8694H50.4532V24.622H48.3236V27.3793H45.7723V24.622H43.6428V31.8694Z" fill="white"/>
<path d="M57.3967 32C59.6518 32 61.0531 30.5585 61.0531 28.2482V28.2382C61.0531 25.9329 59.6468 24.4915 57.3967 24.4915C55.1618 24.4915 53.7505 25.9279 53.7505 28.2382V28.2482C53.7505 30.5636 55.1517 32 57.3967 32ZM57.3967 30.2622C56.5027 30.2622 55.9201 29.4988 55.9201 28.2482V28.2382C55.9201 26.9876 56.5078 26.2292 57.3967 26.2292C58.3008 26.2292 58.8834 26.9926 58.8834 28.2382V28.2482C58.8834 29.4837 58.3158 30.2622 57.3967 30.2622Z" fill="white"/>
<path d="M64.3504 31.8694H66.4799V29.4888H67.178L68.3231 31.8694H70.7037L69.3276 29.1723C70.0307 28.8308 70.4928 28.0172 70.4928 27.1132V27.1031C70.4928 25.4959 69.4782 24.622 67.6149 24.622H64.3504V31.8694ZM66.4799 27.9871V26.1941H67.3688C67.9314 26.1941 68.3231 26.5607 68.3231 27.088V27.0981C68.3231 27.6305 67.9414 27.9871 67.3688 27.9871H66.4799Z" fill="white"/>
<path d="M73.8303 31.8694H75.9598V24.622H73.8303V31.8694Z" fill="white"/>
<path d="M79.3324 31.8694H85.1634V30.1818H81.8235V30.1417L85.0429 25.953V24.622H79.3626V26.3096H82.5618V26.3497L79.3324 30.5334V31.8694Z" fill="white"/>
<path d="M91.9112 32C94.1662 32 95.5675 30.5585 95.5675 28.2482V28.2382C95.5675 25.9329 94.1612 24.4915 91.9112 24.4915C89.6762 24.4915 88.2649 25.9279 88.2649 28.2382V28.2482C88.2649 30.5636 89.6661 32 91.9112 32ZM91.9112 30.2622C91.0172 30.2622 90.4346 29.4988 90.4346 28.2482V28.2382C90.4346 26.9876 91.0222 26.2292 91.9112 26.2292C92.8152 26.2292 93.3978 26.9926 93.3978 28.2382V28.2482C93.3978 29.4837 92.8303 30.2622 91.9112 30.2622Z" fill="white"/>
<path d="M98.8648 31.8694H100.994V28.1026H101.029L103.611 31.8694H105.364V24.622H103.234V28.3286H103.199L100.638 24.622H98.8648V31.8694Z" fill="white"/>
<defs>
<filter id="filter0_d_627_693" x="30.1179" y="3.68262" width="22.5485" height="22.9253" filterUnits="userSpaceOnUse" color-interpolation-filters="sRGB">
<feFlood flood-opacity="0" result="BackgroundImageFix"/>
<feColorMatrix in="SourceAlpha" type="matrix" values="0 0 0 0 0 0 0 0 0 0 0 0 0 0 0 0 0 0 127 0" result="hardAlpha"/>
<feOffset dy="11.569"/>
<feGaussianBlur stdDeviation="2.89224"/>
<feColorMatrix type="matrix" values="0 0 0 0 0 0 0 0 0 0 0 0 0 0 0 0 0 0 0.15 0"/>
<feBlend mode="normal" in2="BackgroundImageFix" result="effect1_dropShadow_627_693"/>
<feBlend mode="normal" in="SourceGraphic" in2="effect1_dropShadow_627_693" result="shape"/>
</filter>
<filter id="filter1_d_627_693" x="56.2575" y="10.145" width="22.5455" height="22.9253" filterUnits="userSpaceOnUse" color-interpolation-filters="sRGB">
<feFlood flood-opacity="0" result="BackgroundImageFix"/>
<feColorMatrix in="SourceAlpha" type="matrix" values="0 0 0 0 0 0 0 0 0 0 0 0 0 0 0 0 0 0 127 0" result="hardAlpha"/>
<feOffset dy="11.569"/>
<feGaussianBlur stdDeviation="2.89224"/>
<feColorMatrix type="matrix" values="0 0 0 0 0 0 0 0 0 0 0 0 0 0 0 0 0 0 0.15 0"/>
<feBlend mode="normal" in2="BackgroundImageFix" result="effect1_dropShadow_627_693"/>
<feBlend mode="normal" in="SourceGraphic" in2="effect1_dropShadow_627_693" result="shape"/>
</filter>
</defs>
</svg>
